<svg xmlns="http://www.w3.org/2000/svg" class="dotscene" data-dotscene="person" viewBox="-22 -3 44 73" role="img">
  <title>A person</title>
  <style>:where(.dotscene){--ds-dot-r:1.2;--ds-line-w:0.55;--ds-zoom:1;--ds-dot-fill:currentColor;--ds-line-stroke:currentColor}:where(.dotscene) .ds-line{stroke:var(--ds-line-stroke);stroke-width:calc(var(--ds-line-w) * var(--ds-zoom));stroke-linecap:round;fill:none}:where(.dotscene) .ds-dot{fill:var(--ds-dot-fill);r:calc(var(--ds-dot-r) * var(--ds-zoom))}:where(.dotscene) .ds-face{fill:var(--ds-face-fill,#ffffff);stroke:none}:where(svg[data-dotscene="person"]){--ds-dot-r:1.6;--ds-line-w:0.72}</style>
  <defs><clipPath id="ds-clip-person"><rect class="ds-clip" x="-22" y="-3" width="44" height="73"/></clipPath></defs>
  <g clip-path="url(#ds-clip-person)">
    <g data-part="person">
    <line class="ds-line" data-part="person" data-a="head" data-b="neck" x1="0" y1="3" x2="0" y2="13"/>
    <line class="ds-line" data-part="person" data-a="neck" data-b="chest" x1="0" y1="13" x2="0" y2="22"/>
    <line class="ds-line" data-part="person" data-a="chest" data-b="hip" x1="0" y1="22" x2="0" y2="34"/>
    <line class="ds-line" data-part="person" data-a="neck" data-b="shoulderL" x1="0" y1="13" x2="-7" y2="15"/>
    <line class="ds-line" data-part="person" data-a="neck" data-b="shoulderR" x1="0" y1="13" x2="7" y2="15"/>
    <line class="ds-line" data-part="person" data-a="shoulderL" data-b="elbowL" x1="-7" y1="15" x2="-13" y2="24"/>
    <line class="ds-line" data-part="person" data-a="elbowL" data-b="handL" x1="-13" y1="24" x2="-16" y2="33"/>
    <line class="ds-line" data-part="person" data-a="shoulderR" data-b="elbowR" x1="7" y1="15" x2="13" y2="24"/>
    <line class="ds-line" data-part="person" data-a="elbowR" data-b="handR" x1="13" y1="24" x2="16" y2="33"/>
    <line class="ds-line" data-part="person" data-a="hip" data-b="hipL" x1="0" y1="34" x2="-5" y2="36"/>
    <line class="ds-line" data-part="person" data-a="hip" data-b="hipR" x1="0" y1="34" x2="5" y2="36"/>
    <line class="ds-line" data-part="person" data-a="hipL" data-b="kneeL" x1="-5" y1="36" x2="-7" y2="50"/>
    <line class="ds-line" data-part="person" data-a="kneeL" data-b="footL" x1="-7" y1="50" x2="-8" y2="64"/>
    <line class="ds-line" data-part="person" data-a="hipR" data-b="kneeR" x1="5" y1="36" x2="7" y2="50"/>
    <line class="ds-line" data-part="person" data-a="kneeR" data-b="footR" x1="7" y1="50" x2="8" y2="64"/>
    <circle class="ds-dot" data-part="person" data-p="head" cx="0" cy="3" r="1.6"/>
    <circle class="ds-dot" data-part="person" data-p="neck" cx="0" cy="13" r="1.6"/>
    <circle class="ds-dot" data-part="person" data-p="chest" cx="0" cy="22" r="1.6"/>
    <circle class="ds-dot" data-part="person" data-p="hip" cx="0" cy="34" r="1.6"/>
    <circle class="ds-dot" data-part="person" data-p="shoulderL" cx="-7" cy="15" r="1.6"/>
    <circle class="ds-dot" data-part="person" data-p="elbowL" cx="-13" cy="24" r="1.6"/>
    <circle class="ds-dot" data-part="person" data-p="handL" cx="-16" cy="33" r="1.6"/>
    <circle class="ds-dot" data-part="person" data-p="hipL" cx="-5" cy="36" r="1.6"/>
    <circle class="ds-dot" data-part="person" data-p="kneeL" cx="-7" cy="50" r="1.6"/>
    <circle class="ds-dot" data-part="person" data-p="footL" cx="-8" cy="64" r="1.6"/>
    <circle class="ds-dot" data-part="person" data-p="shoulderR" cx="7" cy="15" r="1.6"/>
    <circle class="ds-dot" data-part="person" data-p="elbowR" cx="13" cy="24" r="1.6"/>
    <circle class="ds-dot" data-part="person" data-p="handR" cx="16" cy="33" r="1.6"/>
    <circle class="ds-dot" data-part="person" data-p="hipR" cx="5" cy="36" r="1.6"/>
    <circle class="ds-dot" data-part="person" data-p="kneeR" cx="7" cy="50" r="1.6"/>
    <circle class="ds-dot" data-part="person" data-p="footR" cx="8" cy="64" r="1.6"/>
    </g>
  </g>
</svg>
